<mxfile modified="2023-02-01T15:54:47.007Z" host="app.diagrams.net" agent="5.0 (X11; Linux x86_64) AppleWebKit/537.36 (KHTML, like Gecko) Chrome/108.0.0.0 Safari/537.36" etag="gZChCqqYDb9icdYyChxB" version="20.8.15" type="github">
  <diagram id="Ht1M8jgEwFfnCIfOTk4-" name="Page-1">
    <mxGraphModel dx="1986" dy="1118" grid="1" gridSize="10" guides="1" tooltips="1" connect="1" arrows="1" fold="1" page="1" pageScale="1" pageWidth="1169" pageHeight="827" math="0" shadow="0">
      <root>
        <mxCell id="0" />
        <mxCell id="1" parent="0" />
        <mxCell id="-QjtrjUzRDEMRZ5MF8oH-47" value="Cloudflare manager applications" style="text;html=1;resizable=0;points=[];autosize=1;align=left;verticalAlign=top;spacingTop=-4;fontSize=30;fontStyle=1" parent="1" vertex="1">
          <mxGeometry x="337.5" y="60" width="490" height="40" as="geometry" />
        </mxCell>
        <mxCell id="SCVMTBWpLvtzJIhz15lM-1" value="" style="line;strokeWidth=2;html=1;fontSize=14;" parent="1" vertex="1">
          <mxGeometry x="40" y="120" width="1075" height="10" as="geometry" />
        </mxCell>
        <mxCell id="WLu1c2YTE3ehMS2ho4bU-8" value="" style="sketch=0;outlineConnect=0;fontColor=#ffffff;fillColor=#647687;strokeColor=#314354;dashed=0;verticalLabelPosition=bottom;verticalAlign=top;align=center;html=1;fontSize=12;fontStyle=0;aspect=fixed;shape=mxgraph.aws4.workspaces_workspaces_web;gradientColor=none;" vertex="1" parent="1">
          <mxGeometry x="802.43" y="280" width="94.86" height="90" as="geometry" />
        </mxCell>
        <mxCell id="WLu1c2YTE3ehMS2ho4bU-10" value="" style="sketch=0;outlineConnect=0;fontColor=#ffffff;fillColor=#647687;strokeColor=#314354;dashed=0;verticalLabelPosition=bottom;verticalAlign=top;align=center;html=1;fontSize=12;fontStyle=0;aspect=fixed;shape=mxgraph.aws4.workspaces_workspaces_web;" vertex="1" parent="1">
          <mxGeometry x="810" y="530" width="94.86" height="90" as="geometry" />
        </mxCell>
        <mxCell id="WLu1c2YTE3ehMS2ho4bU-11" value="" style="sketch=0;outlineConnect=0;fillColor=#647687;strokeColor=none;dashed=0;verticalLabelPosition=bottom;verticalAlign=top;align=center;html=1;fontSize=12;fontStyle=0;aspect=fixed;shape=mxgraph.aws4.amplify_aws_amplify_studio;fontColor=#ffffff;gradientColor=none;" vertex="1" parent="1">
          <mxGeometry x="119.32" y="350" width="109.09" height="100" as="geometry" />
        </mxCell>
        <mxCell id="WLu1c2YTE3ehMS2ho4bU-12" value="" style="sketch=0;points=[[0,0,0],[0.25,0,0],[0.5,0,0],[0.75,0,0],[1,0,0],[0,1,0],[0.25,1,0],[0.5,1,0],[0.75,1,0],[1,1,0],[0,0.25,0],[0,0.5,0],[0,0.75,0],[1,0.25,0],[1,0.5,0],[1,0.75,0]];outlineConnect=0;gradientDirection=north;fillColor=none;strokeColor=#647687;dashed=0;verticalLabelPosition=bottom;verticalAlign=top;align=center;html=1;fontSize=12;fontStyle=0;aspect=fixed;shape=mxgraph.aws4.resourceIcon;resIcon=mxgraph.aws4.cloudfront;fontColor=#ffffff;strokeWidth=1;fillStyle=auto;gradientColor=none;" vertex="1" parent="1">
          <mxGeometry x="440" y="340" width="120" height="120" as="geometry" />
        </mxCell>
        <mxCell id="WLu1c2YTE3ehMS2ho4bU-15" value="&lt;font style=&quot;font-size: 21px;&quot;&gt;http://Localhost:9000&lt;/font&gt;" style="text;html=1;resizable=0;points=[];autosize=1;align=left;verticalAlign=top;spacingTop=-4;fontSize=30;fontStyle=1" vertex="1" parent="1">
          <mxGeometry x="70" y="470" width="230" height="40" as="geometry" />
        </mxCell>
        <mxCell id="WLu1c2YTE3ehMS2ho4bU-16" value="&lt;font style=&quot;font-size: 21px;&quot;&gt;CloudFlare Worker&lt;/font&gt;" style="text;html=1;resizable=0;points=[];autosize=1;align=left;verticalAlign=top;spacingTop=-4;fontSize=30;fontStyle=1" vertex="1" parent="1">
          <mxGeometry x="390" y="470" width="210" height="40" as="geometry" />
        </mxCell>
        <mxCell id="WLu1c2YTE3ehMS2ho4bU-17" value="&lt;font style=&quot;font-size: 21px;&quot;&gt;App Car&lt;/font&gt;" style="text;html=1;resizable=0;points=[];autosize=1;align=left;verticalAlign=top;spacingTop=-4;fontSize=30;fontStyle=1" vertex="1" parent="1">
          <mxGeometry x="802.43" y="230" width="110" height="40" as="geometry" />
        </mxCell>
        <mxCell id="WLu1c2YTE3ehMS2ho4bU-18" value="&lt;span style=&quot;font-size: 21px;&quot;&gt;App People&lt;/span&gt;" style="text;html=1;resizable=0;points=[];autosize=1;align=left;verticalAlign=top;spacingTop=-4;fontSize=30;fontStyle=1" vertex="1" parent="1">
          <mxGeometry x="802.43" y="480" width="140" height="40" as="geometry" />
        </mxCell>
        <mxCell id="WLu1c2YTE3ehMS2ho4bU-20" value="" style="endArrow=classic;html=1;rounded=0;fontSize=21;exitX=1;exitY=0;exitDx=0;exitDy=0;exitPerimeter=0;strokeWidth=5;" edge="1" parent="1" source="WLu1c2YTE3ehMS2ho4bU-12">
          <mxGeometry width="50" height="50" relative="1" as="geometry">
            <mxPoint x="460" y="560" as="sourcePoint" />
            <mxPoint x="790" y="290" as="targetPoint" />
          </mxGeometry>
        </mxCell>
        <mxCell id="WLu1c2YTE3ehMS2ho4bU-21" value="" style="endArrow=classic;html=1;rounded=0;fontSize=21;exitX=1;exitY=1;exitDx=0;exitDy=0;exitPerimeter=0;strokeWidth=5;" edge="1" parent="1" source="WLu1c2YTE3ehMS2ho4bU-12">
          <mxGeometry width="50" height="50" relative="1" as="geometry">
            <mxPoint x="570" y="410" as="sourcePoint" />
            <mxPoint x="790" y="570" as="targetPoint" />
          </mxGeometry>
        </mxCell>
        <mxCell id="WLu1c2YTE3ehMS2ho4bU-23" value="" style="endArrow=classic;html=1;rounded=0;fontSize=21;strokeWidth=5;entryX=0;entryY=0.5;entryDx=0;entryDy=0;entryPerimeter=0;" edge="1" parent="1" target="WLu1c2YTE3ehMS2ho4bU-12">
          <mxGeometry width="50" height="50" relative="1" as="geometry">
            <mxPoint x="250" y="400" as="sourcePoint" />
            <mxPoint x="480" y="290" as="targetPoint" />
          </mxGeometry>
        </mxCell>
        <mxCell id="WLu1c2YTE3ehMS2ho4bU-24" value="" style="endArrow=classic;html=1;rounded=0;fontSize=21;strokeWidth=5;entryX=1;entryY=0.25;entryDx=0;entryDy=0;entryPerimeter=0;" edge="1" parent="1" target="WLu1c2YTE3ehMS2ho4bU-12">
          <mxGeometry width="50" height="50" relative="1" as="geometry">
            <mxPoint x="790" y="320" as="sourcePoint" />
            <mxPoint x="580" y="410" as="targetPoint" />
          </mxGeometry>
        </mxCell>
        <mxCell id="WLu1c2YTE3ehMS2ho4bU-25" value="" style="endArrow=classic;html=1;rounded=0;fontSize=21;strokeWidth=5;entryX=1;entryY=0.75;entryDx=0;entryDy=0;entryPerimeter=0;" edge="1" parent="1" target="WLu1c2YTE3ehMS2ho4bU-12">
          <mxGeometry width="50" height="50" relative="1" as="geometry">
            <mxPoint x="780" y="530" as="sourcePoint" />
            <mxPoint x="570" y="380" as="targetPoint" />
          </mxGeometry>
        </mxCell>
        <mxCell id="WLu1c2YTE3ehMS2ho4bU-26" value="" style="endArrow=classic;html=1;rounded=0;fontSize=21;strokeWidth=5;exitX=0;exitY=0.25;exitDx=0;exitDy=0;exitPerimeter=0;" edge="1" parent="1" source="WLu1c2YTE3ehMS2ho4bU-12">
          <mxGeometry width="50" height="50" relative="1" as="geometry">
            <mxPoint x="470" y="460" as="sourcePoint" />
            <mxPoint x="250" y="370" as="targetPoint" />
          </mxGeometry>
        </mxCell>
      </root>
    </mxGraphModel>
  </diagram>
</mxfile>
